<svg xmlns="http://www.w3.org/2000/svg" viewBox="0 0 100 100" fill="none">
  <!-- Butterfly only for favicon -->
  <g transform="translate(0, 5)">
    <!-- Left wing -->
    <path d="M50 40 C30 15, 5 20, 10 45 C15 65, 35 70, 50 55" fill="none" stroke="#6B3FA0" stroke-width="4" stroke-linecap="round"/>
    <path d="M50 55 C35 50, 20 60, 25 78 C30 90, 45 85, 50 70" fill="none" stroke="#6B3FA0" stroke-width="4" stroke-linecap="round"/>
    <!-- Right wing -->
    <path d="M50 40 C70 15, 95 20, 90 45 C85 65, 65 70, 50 55" fill="none" stroke="#6B3FA0" stroke-width="4" stroke-linecap="round"/>
    <path d="M50 55 C65 50, 80 60, 75 78 C70 90, 55 85, 50 70" fill="none" stroke="#6B3FA0" stroke-width="4" stroke-linecap="round"/>
    <!-- Body -->
    <line x1="50" y1="35" x2="50" y2="85" stroke="#6B3FA0" stroke-width="4" stroke-linecap="round"/>
    <!-- Antennae -->
    <path d="M50 38 C45 28, 38 22, 35 18" stroke="#6B3FA0" stroke-width="3" stroke-linecap="round" fill="none"/>
    <path d="M50 38 C55 28, 62 22, 65 18" stroke="#6B3FA0" stroke-width="3" stroke-linecap="round" fill="none"/>
    <circle cx="34" cy="17" r="3" fill="#6B3FA0"/>
    <circle cx="66" cy="17" r="3" fill="#6B3FA0"/>
  </g>
</svg>
